<svg id="Capa_1" data-name="Capa 1" xmlns="http://www.w3.org/2000/svg" viewBox="0 0 236.23 237.4"><defs><style>.cls-1{fill:#aad69d;}</style></defs><title>greenmind</title><path class="cls-1" d="M235.05,479c-.71-1.35-1.36-2.72-2.13-4-4.29-7.43-6.82-15.38-6.56-24s3.12-16.12,11.45-20.32c8.77-4.43,17.17-3.63,25.24,1.88,3,2,5.24,4.79,7.57,7.49,3.93,5.58,5.16,11.91,5.36,18.6.17,5.59-.64,11.15-.11,16.77a32,32,0,0,0,8.79,19.42c8.39,8.95,19,14.09,30.33,18.14.71.25,1.44.48,2.16.74.11,0,.18.16.36.32-.55.58-1.27.46-1.91.48a116.35,116.35,0,0,1-43.88-6.69A74.84,74.84,0,0,1,247,493.11,69,69,0,0,1,235.05,479Z" transform="translate(-193.24 -277.19)"/><path class="cls-1" d="M423.5,359.63c2,3.83,2.84,7.89,3.62,11.92,2.65,13.67,3.38,27.39.54,41.14-2.67,12.91-8.06,24.46-17,34.28-6.9,7.58-14.68,13.73-24.79,16.37a31.2,31.2,0,0,1-10.77.94c-12.64-1.14-20.33-14.42-19-24.36,1.66-12.28,8.24-20.68,19.91-25,6.11-2.26,12.61-3,18.85-4.81,10-2.83,16.55-9.35,20.92-18.44s6.52-19,7.28-29.07C423.15,361.62,423.36,360.63,423.5,359.63Z" transform="translate(-193.24 -277.19)"/><path class="cls-1" d="M408.36,462.86c.17.37-.06.63-.24.88-12.47,17.31-27.77,31.16-48.13,38.54a66.77,66.77,0,0,1-44.76.69,36.57,36.57,0,0,1-18.17-12.73c-8-10.5-3.44-25.26,6.3-31.28,10.83-6.7,21.82-6.35,32.57.47a100.71,100.71,0,0,1,11.69,9.21c10.52,9.14,22.48,10.25,35.3,6.48a86.52,86.52,0,0,0,24.13-11.69C407.44,463.17,407.76,462.67,408.36,462.86Z" transform="translate(-193.24 -277.19)"/><path class="cls-1" d="M374.93,334.64c2.39-6.21,1.64-12.35-.34-18.48-3-9.28-8.46-17-15-24.09a92,92,0,0,0-8-7.73,3.69,3.69,0,0,1,2.54.46c15.09,6.25,28.71,14.71,39.9,26.78,1.42,1.54,2.77,3.15,4.15,4.73a73,73,0,0,1,11.56,20.95,79.54,79.54,0,0,1,3.83,18.82,48.23,48.23,0,0,1-2,18.44,29.65,29.65,0,0,1-8.78,13.82,19.5,19.5,0,0,1-13,4.72c-11.07.22-20.35-7.08-23.95-18.59-2.84-9.06-.88-17.44,3.11-25.63C371.2,344.22,373.68,339.69,374.93,334.64Z" transform="translate(-193.24 -277.19)"/><path class="cls-1" d="M193.29,374a9.16,9.16,0,0,1,.41-3.54c3.45-14.64,8.91-28.4,17.76-40.68,11.61-16.11,27-26.41,46.65-29.94a39.75,39.75,0,0,1,25.61,3.56c10,5.07,13.5,18.67,8.91,28.33-4.86,10.21-13.45,15.12-24.38,16.2-7,.69-13.57-1.74-20.18-3.58-5.13-1.43-10.3-2.44-15.64-1.89-7.7.8-14.1,4.52-20,9.27a83.84,83.84,0,0,0-17.84,20.76c-.27.43-.53.87-.81,1.29C193.74,373.89,193.58,373.91,193.29,374Z" transform="translate(-193.24 -277.19)"/><path class="cls-1" d="M255.44,290.1a33.43,33.43,0,0,1,5.75-3,109.77,109.77,0,0,1,36.36-9.61c19.73-1.49,37.76,2.86,53.38,15.62a45.63,45.63,0,0,1,14.44,19.75c6.69,18-9.29,31.93-24.07,30.07-12-1.51-20.19-8-25.07-18.94-1.86-4.19-3.62-8.42-5.43-12.63-4-9.39-11.18-15.17-20.74-18.36-10.24-3.43-20.75-3.44-31.34-2.83-.7,0-1.39.12-2.09.15A8.78,8.78,0,0,1,255.44,290.1Z" transform="translate(-193.24 -277.19)"/><path class="cls-1" d="M221.2,474.45a62.23,62.23,0,0,1-7.15-8.7,111.84,111.84,0,0,1-13.36-24c-6.52-16.2-8.69-32.81-3.7-49.85,2.72-9.31,6.67-18,13.89-24.87,4.85-4.6,10.25-8.26,17.14-8.82s12.55,2.18,17.32,6.91c10.43,10.34,8.48,30.21-4,40.48-4.38,3.6-9,6.83-13.47,10.34-8.35,6.57-11.8,15.37-12.26,25.63-.47,10.66,1.66,20.89,5.3,30.85A2.68,2.68,0,0,1,221.2,474.45Z" transform="translate(-193.24 -277.19)"/></svg>